<?xml version="1.0" encoding="utf-8"?>
<svg viewBox="4.061 0 923.122 307.802" xmlns="http://www.w3.org/2000/svg">
  <path opacity="1.000000" stroke="none" d="&#10;M124.999947,276.180389 &#10;&#9;C113.335869,276.179047 102.171196,276.248474 91.007942,276.152283 &#10;&#9;C83.136497,276.084473 78.865288,272.232422 78.818359,265.471863 &#10;&#9;C78.771194,258.676941 83.543610,254.379349 91.282349,254.311386 &#10;&#9;C96.060860,254.269409 100.840042,254.303604 105.865341,254.303604 &#10;&#9;C105.865341,248.203583 105.865341,242.627640 105.865341,236.410995 &#10;&#9;C104.076233,236.410995 102.460732,236.410980 100.845230,236.410995 &#10;&#9;C80.183372,236.411179 59.521473,236.436905 38.859673,236.403061 &#10;&#9;C23.747868,236.378296 17.131382,229.839142 17.125879,214.881729 &#10;&#9;C17.105042,158.228241 17.029768,101.574387 17.274582,44.921959 &#10;&#9;C17.295763,40.020473 18.489899,34.484829 21.033010,30.432167 &#10;&#9;C23.134171,27.083797 27.850475,25.089224 31.770382,23.279861 &#10;&#9;C34.030067,22.236832 37.009056,22.590662 39.664375,22.589703 &#10;&#9;C119.479126,22.560843 199.293900,22.589001 279.108612,22.533941 &#10;&#9;C287.906525,22.527872 296.017639,23.828344 299.860474,32.991219 &#10;&#9;C301.360901,36.568932 302.223206,40.695400 302.233154,44.574860 &#10;&#9;C302.379639,101.561218 302.384460,158.548141 302.294922,215.534744 &#10;&#9;C302.273468,229.199417 294.932983,236.323883 281.137665,236.386368 &#10;&#9;C260.309601,236.480713 239.480820,236.410843 218.652328,236.410782 &#10;&#9;C216.869293,236.410782 215.086258,236.410797 213.244659,236.410797 &#10;&#9;C213.244659,242.650360 213.244659,248.239670 213.244659,254.311371 &#10;&#9;C218.279678,254.311371 223.067078,254.182327 227.844849,254.341797 &#10;&#9;C234.905792,254.577484 238.774673,257.455414 240.095596,263.140381 &#10;&#9;C241.558167,269.434967 237.398804,275.382812 230.970184,276.032562 &#10;&#9;C228.822678,276.249634 226.642181,276.174683 224.476746,276.175171 &#10;&#9;C191.484482,276.182587 158.492218,276.180359 124.999947,276.180389 &#10;M33.293190,58.501930 &#10;&#9;C33.292725,110.329292 33.348206,162.156815 33.196903,213.983734 &#10;&#9;C33.183224,218.669388 34.313114,220.363586 39.270973,220.355423 &#10;&#9;C119.428154,220.223404 199.585678,220.226700 279.742859,220.352768 &#10;&#9;C284.593262,220.360397 285.922577,218.859039 285.909210,214.057571 &#10;&#9;C285.752655,157.731171 285.759521,101.404076 285.900146,45.077602 &#10;&#9;C285.911621,40.472713 284.941986,38.862965 279.928192,38.873478 &#10;&#9;C199.937790,39.041161 119.946930,38.991341 39.956177,38.991108 &#10;&#9;C39.122940,38.991108 38.282009,39.063946 37.457848,38.977341 &#10;&#9;C34.438488,38.660049 33.220562,40.053005 33.269554,43.005337 &#10;&#9;C33.349728,47.836796 33.292488,52.670528 33.293190,58.501930 &#10;z" style="fill: rgb(255, 255, 255);"/>
  <path opacity="1.000000" stroke="none" d="&#10;M633.467041,148.594666 &#10;&#9;C633.328735,157.037979 633.611877,165.068817 632.851135,172.999527 &#10;&#9;C631.858398,183.348160 626.981201,191.610703 617.113586,196.630127 &#10;&#9;C620.110107,198.993454 623.197998,200.903442 625.625244,203.444504 &#10;&#9;C632.152893,210.278320 633.407410,219.108810 633.741089,227.996490 &#10;&#9;C634.097229,237.482574 633.724670,246.994217 633.971558,256.486847 &#10;&#9;C634.138611,262.911224 634.826599,269.322021 635.335144,276.493927 &#10;&#9;C628.095459,276.493927 620.204224,276.590454 612.322388,276.362488 &#10;&#9;C611.414368,276.336273 609.959961,274.598114 609.783203,273.490234 &#10;&#9;C609.051453,268.904755 608.403625,264.263794 608.294678,259.629791 &#10;&#9;C608.059631,249.636459 608.340149,239.631104 608.109985,229.637573 &#10;&#9;C607.758362,214.372177 603.315796,210.153397 588.159607,210.171341 &#10;&#9;C586.532288,210.173264 584.904907,210.171616 582.888306,210.171616 &#10;&#9;C582.888306,232.392960 582.888306,254.151413 582.888306,276.207886 &#10;&#9;C574.221985,276.207886 565.964417,276.207886 557.401001,276.207886 &#10;&#9;C557.401001,222.223022 557.401001,168.338135 557.401001,113.828384 &#10;&#9;C561.327820,113.828384 565.262451,113.809662 569.196777,113.831947 &#10;&#9;C580.194153,113.894257 591.199158,113.737228 602.186890,114.099571 &#10;&#9;C620.263977,114.695709 631.586853,125.704414 633.056519,143.653549 &#10;&#9;C633.178955,145.148254 633.301636,146.642944 633.467041,148.594666 &#10;M606.696472,178.774185 &#10;&#9;C606.840942,167.882095 607.311035,156.980209 606.984070,146.102280 &#10;&#9;C606.834473,141.124817 603.065063,137.881485 598.164062,137.354431 &#10;&#9;C593.138550,136.813965 588.009705,137.234619 583.137146,137.234619 &#10;&#9;C583.137146,154.027832 583.137146,170.396225 583.137146,186.921799 &#10;&#9;C587.081848,186.921799 590.733093,187.136749 594.348938,186.870499 &#10;&#9;C599.532898,186.488785 604.127197,184.853973 606.696472,178.774185 &#10;z" style="fill: rgb(255, 255, 255);"/>
  <path opacity="1.000000" stroke="none" d="&#10;M713.517456,185.455460 &#10;&#9;C717.024475,161.472504 720.425842,137.918945 723.863281,114.115448 &#10;&#9;C731.637146,114.115448 739.207764,114.115448 747.338379,114.115448 &#10;&#9;C739.001709,168.184982 730.697083,222.046524 722.350037,276.183472 &#10;&#9;C709.506165,276.183472 696.938110,276.183472 684.147644,276.183472 &#10;&#9;C675.821655,222.191620 667.508118,168.280838 659.150513,114.083969 &#10;&#9;C667.680908,114.083969 675.967834,114.083969 684.915710,114.083969 &#10;&#9;C691.275391,157.749191 697.663330,201.609131 704.051331,245.469086 &#10;&#9;C704.300598,245.459824 704.549805,245.450577 704.799072,245.441330 &#10;&#9;C707.669983,225.589172 710.540833,205.737015 713.517456,185.455460 &#10;z" style="fill: rgb(255, 255, 255);"/>
  <path opacity="1.000000" stroke="none" d="&#10;M406.984589,115.844757 &#10;&#9;C423.834900,125.275887 425.239136,141.020493 425.283508,157.721863 &#10;&#9;C417.306946,157.721863 409.544098,157.721863 400.954346,157.721863 &#10;&#9;C400.954346,154.398102 401.179657,150.956635 400.909790,147.554459 &#10;&#9;C400.247040,139.199753 395.942047,135.006424 388.379028,135.013260 &#10;&#9;C381.391602,135.019577 377.073944,138.591660 376.072632,145.540680 &#10;&#9;C374.735382,154.820847 376.269012,163.588806 382.388397,170.912827 &#10;&#9;C386.745972,176.128220 391.734497,180.817520 396.456818,185.726822 &#10;&#9;C402.559204,192.070892 409.221252,197.967346 414.674713,204.825943 &#10;&#9;C426.076019,219.164825 427.957092,235.752213 423.469818,253.033768 &#10;&#9;C419.624542,267.842621 409.292450,276.582184 393.814667,277.653473 &#10;&#9;C386.494720,278.160126 378.790558,277.364624 371.677307,275.536896 &#10;&#9;C362.723633,273.236298 356.605988,266.726318 353.053375,258.084381 &#10;&#9;C349.787903,250.140839 348.399933,237.025681 349.840668,227.161728 &#10;&#9;C353.683807,227.161728 357.629303,227.161728 361.574768,227.161728 &#10;&#9;C365.372620,227.161728 369.170441,227.161728 373.788361,227.161728 &#10;&#9;C373.788361,232.313019 373.541962,237.110672 373.842194,241.873856 &#10;&#9;C374.385254,250.488510 378.717346,254.717819 386.582916,254.799927 &#10;&#9;C394.532074,254.882874 399.174042,250.372650 399.897614,241.752502 &#10;&#9;C400.917908,229.597946 395.268433,220.287033 387.068542,212.127502 &#10;&#9;C379.166626,204.264420 370.643127,196.946869 363.382111,188.535568 &#10;&#9;C348.821808,171.668716 346.319153,152.210510 353.945740,131.590454 &#10;&#9;C357.877136,120.961143 366.225159,114.907730 377.352783,112.878830 &#10;&#9;C387.359650,111.054276 397.214539,111.243500 406.984589,115.844757 &#10;z" style="fill: rgb(255, 255, 255);"/>
  <path opacity="1.000000" stroke="none" d="&#10;M869.259460,212.751450 &#10;&#9;C860.633423,204.170898 851.575989,196.413727 844.028564,187.393173 &#10;&#9;C829.837463,170.432083 828.054565,150.975235 835.884155,130.700272 &#10;&#9;C839.765137,120.650475 847.845764,114.475395 858.396606,113.147804 &#10;&#9;C866.184631,112.167847 874.510193,111.894539 882.088867,113.583382 &#10;&#9;C896.351562,116.761703 903.400146,127.472816 905.787476,141.336929 &#10;&#9;C906.686584,146.558578 906.772278,151.920288 907.263916,157.626343 &#10;&#9;C898.982117,157.626343 891.106873,157.626343 883.135254,157.626343 &#10;&#9;C882.761108,153.371307 882.637329,149.068390 881.953491,144.856415 &#10;&#9;C880.893555,138.328400 876.823120,135.112061 870.169434,135.022263 &#10;&#9;C863.428162,134.931290 859.407593,137.929657 857.923645,144.337875 &#10;&#9;C855.540222,154.630707 857.852783,164.072159 864.692322,171.844421 &#10;&#9;C871.043457,179.061691 878.342896,185.442535 885.199158,192.217606 &#10;&#9;C894.278137,201.189133 902.435730,210.792191 905.465515,223.637955 &#10;&#9;C907.757324,233.354752 907.737793,243.085419 905.105408,252.770813 &#10;&#9;C901.495117,266.054260 893.148376,274.509125 879.514404,276.971802 &#10;&#9;C864.459045,279.691254 850.159607,278.587799 839.286316,265.959076 &#10;&#9;C833.627441,259.386658 831.755005,251.227432 831.132385,242.834381 &#10;&#9;C830.764221,237.870819 831.065063,232.857620 831.065063,227.515045 &#10;&#9;C838.842590,227.515045 846.574768,227.515045 855.111572,227.515045 &#10;&#9;C855.111572,231.948242 854.894531,236.543457 855.155273,241.111374 &#10;&#9;C855.757751,251.664124 862.213135,256.488983 872.252136,254.223373 &#10;&#9;C877.763000,252.979675 880.182495,249.140060 881.027466,244.003632 &#10;&#9;C883.084717,231.498947 877.819458,221.677200 869.259460,212.751450 &#10;z" style="fill: rgb(255, 255, 255);"/>
  <path opacity="1.000000" stroke="none" d="&#10;M516.649475,196.940109 &#10;&#9;C516.649231,199.896210 516.649231,202.365753 516.649231,205.398819 &#10;&#9;C504.840973,205.398819 493.443268,205.398819 481.776306,205.398819 &#10;&#9;C481.776306,221.542938 481.776306,237.120041 481.776306,253.163116 &#10;&#9;C496.338593,253.163116 510.755035,253.163116 525.447754,253.163116 &#10;&#9;C525.447754,261.034393 525.447754,268.443604 525.447754,276.174805 &#10;&#9;C502.362457,276.174805 479.434631,276.174805 456.237305,276.174805 &#10;&#9;C456.237305,222.371368 456.237305,168.438797 456.237305,114.168823 &#10;&#9;C479.197540,114.168823 502.225586,114.168823 525.494934,114.168823 &#10;&#9;C525.494934,121.725365 525.494934,129.135025 525.494934,136.930862 &#10;&#9;C510.848816,136.930862 496.416351,136.930862 481.741913,136.930862 &#10;&#9;C481.741913,152.080765 481.741913,166.845917 481.741913,182.110641 &#10;&#9;C493.274384,182.110641 504.676819,182.110641 516.649719,182.110641 &#10;&#9;C516.649719,187.216614 516.649719,191.835083 516.649475,196.940109 &#10;z" style="fill: rgb(255, 255, 255);"/>
  <path opacity="1.000000" stroke="none" d="&#10;M800.579468,247.000214 &#10;&#9;C800.579468,256.964203 800.579468,266.428162 800.579468,276.202698 &#10;&#9;C791.922241,276.202698 783.684814,276.202698 775.211182,276.202698 &#10;&#9;C775.211182,222.187119 775.211182,168.276672 775.211182,114.094086 &#10;&#9;C783.541077,114.094086 791.785461,114.094086 800.579529,114.094086 &#10;&#9;C800.579529,158.268509 800.579529,202.384354 800.579468,247.000214 &#10;z" style="fill: rgb(255, 255, 255);"/>
  <path opacity="1.000000" stroke="none" d="&#10;M834.848572,28.102596 &#10;&#9;C834.848572,47.889454 834.848572,67.187950 834.848572,86.300613 &#10;&#9;C834.222046,86.657425 833.954468,86.936668 833.672485,86.952034 &#10;&#9;C824.046082,87.476608 824.095764,87.460037 821.694275,78.224472 &#10;&#9;C818.771667,66.984596 815.759766,55.767895 812.765259,44.546837 &#10;&#9;C812.567627,43.806316 812.189941,43.113846 811.159668,42.595207 &#10;&#9;C811.159668,57.258080 811.159668,71.920959 811.159668,86.832359 &#10;&#9;C808.010315,86.832359 805.251709,86.832359 802.151428,86.832359 &#10;&#9;C802.151428,65.168396 802.151428,43.435215 802.151428,21.378975 &#10;&#9;C806.169128,21.378975 810.256592,21.378975 814.845825,21.378975 &#10;&#9;C817.951660,32.972958 821.132202,44.845654 824.312683,56.718349 &#10;&#9;C824.675842,56.672806 825.039062,56.627262 825.402222,56.581718 &#10;&#9;C825.402222,44.889599 825.402222,33.197483 825.402222,21.288685 &#10;&#9;C828.725159,21.288685 831.494629,21.288685 834.848572,21.288685 &#10;&#9;C834.848572,23.398645 834.848572,25.506441 834.848572,28.102596 &#10;z" style="fill: rgb(255, 255, 255);"/>
  <path opacity="1.000000" stroke="none" d="&#10;M757.279541,58.995552 &#10;&#9;C757.280884,51.168278 757.088684,43.833675 757.327393,36.513119 &#10;&#9;C757.715149,24.621841 765.242676,18.666388 776.891846,20.738607 &#10;&#9;C783.802246,21.967857 788.368408,26.574774 788.618652,34.221298 &#10;&#9;C789.043213,47.195091 789.164978,60.208424 788.641541,73.173958 &#10;&#9;C788.243286,83.039108 782.271912,88.003662 772.742554,87.876549 &#10;&#9;C763.587891,87.754440 758.163391,82.627022 757.419617,72.977859 &#10;&#9;C757.075012,68.506386 757.308289,63.990360 757.279541,58.995552 &#10;M778.084717,74.287781 &#10;&#9;C778.178772,61.471882 778.331848,48.655952 778.325928,35.840099 &#10;&#9;C778.324402,32.587601 777.167664,29.862783 773.179077,29.891785 &#10;&#9;C769.033386,29.921928 767.835693,32.547173 767.835388,36.153816 &#10;&#9;C767.834290,48.148422 767.675171,60.147213 767.990295,72.133537 &#10;&#9;C768.042969,74.136864 769.701538,76.914169 771.426758,77.862289 &#10;&#9;C773.894104,79.218285 776.637695,78.167015 778.084717,74.287781 &#10;z" style="fill: rgb(255, 255, 255);"/>
  <path opacity="1.000000" stroke="none" d="&#10;M745.817871,86.080063 &#10;&#9;C742.547424,86.777962 739.280945,87.022820 734.690796,87.366898 &#10;&#9;C734.690796,82.822746 734.718750,78.767906 734.680969,74.713676 &#10;&#9;C734.656189,72.055847 734.726135,69.376785 734.419495,66.746185 &#10;&#9;C733.783386,61.289814 731.698181,59.993080 724.348511,60.488529 &#10;&#9;C724.348511,69.150368 724.348511,77.871712 724.348511,86.828796 &#10;&#9;C720.748474,86.828796 717.656372,86.828796 714.241089,86.828796 &#10;&#9;C714.241089,65.186905 714.241089,43.478535 714.241089,20.773008 &#10;&#9;C721.337952,21.145514 728.578003,21.176319 735.719910,22.028952 &#10;&#9;C740.135620,22.556116 743.347717,25.659370 744.039551,30.222540 &#10;&#9;C745.356079,38.905396 747.046753,47.814514 738.547913,54.925163 &#10;&#9;C744.925781,58.787384 745.043762,65.187462 745.054932,71.751968 &#10;&#9;C745.062805,76.377403 745.549194,81.002029 745.817871,86.080063 &#10;M733.719849,33.010731 &#10;&#9;C731.107788,29.719265 727.767944,30.247389 724.394958,30.930830 &#10;&#9;C724.394958,37.668503 724.394958,44.109547 724.394958,50.516712 &#10;&#9;C732.650635,51.323479 734.535645,49.690456 734.535339,41.721218 &#10;&#9;C734.535217,39.072414 734.195496,36.423626 733.719849,33.010731 &#10;z" style="fill: rgb(255, 255, 255);"/>
  <path opacity="1.000000" stroke="none" d="&#10;M398.071869,35.001205 &#10;&#9;C398.071869,39.960815 398.071869,44.423546 398.071869,49.088604 &#10;&#9;C402.099335,49.088604 405.702820,49.088604 409.726074,49.088604 &#10;&#9;C409.726074,39.938755 409.726074,30.847303 409.726074,21.416166 &#10;&#9;C413.346924,21.416166 416.557953,21.416166 420.041809,21.416166 &#10;&#9;C420.041809,43.155685 420.041809,64.868645 420.041809,86.827194 &#10;&#9;C416.852509,86.827194 413.741089,86.827194 410.088715,86.827194 &#10;&#9;C410.088715,77.759430 410.088715,68.541527 410.088715,59.084465 &#10;&#9;C405.959930,59.084465 402.356171,59.084465 398.224487,59.084465 &#10;&#9;C398.224487,68.185844 398.224487,77.406693 398.224487,86.843018 &#10;&#9;C394.619202,86.843018 391.531158,86.843018 388.135437,86.843018 &#10;&#9;C388.135437,65.109909 388.135437,43.393265 388.135437,21.373760 &#10;&#9;C391.215515,21.373760 394.297089,21.373760 398.071869,21.373760 &#10;&#9;C398.071869,25.665798 398.071869,30.085062 398.071869,35.001205 &#10;z" style="fill: rgb(255, 255, 255);"/>
  <path opacity="1.000000" stroke="none" d="&#10;M899.297302,87.076782 &#10;&#9;C897.647644,86.043007 895.856750,85.247536 895.316467,83.936630 &#10;&#9;C892.286011,76.584373 889.557190,69.107780 886.558716,61.235989 &#10;&#9;C880.076599,69.144630 884.681335,78.354996 882.631897,86.810242 &#10;&#9;C879.700867,86.810242 876.611633,86.810242 873.171753,86.810242 &#10;&#9;C873.171753,65.195755 873.171753,43.479954 873.171753,21.414837 &#10;&#9;C876.113892,21.414837 879.196411,21.414837 882.780273,21.414837 &#10;&#9;C882.780273,30.158508 882.780273,39.188488 882.780273,48.218472 &#10;&#9;C883.124268,48.305317 883.468262,48.392166 883.812256,48.479015 &#10;&#9;C886.806458,42.160240 890.272888,36.014122 892.664124,29.474848 &#10;&#9;C895.128967,22.734392 898.637817,18.955856 906.747498,21.649679 &#10;&#9;C903.903625,27.532337 901.554443,34.046383 897.844971,39.661831 &#10;&#9;C892.775635,47.335831 893.261536,54.344166 897.070557,62.246178 &#10;&#9;C900.863953,70.115814 903.693298,78.450134 907.143921,87.077087 &#10;&#9;C904.320068,87.077087 902.026794,87.077087 899.297302,87.076782 &#10;z" style="fill: rgb(255, 255, 255);"/>
  <path opacity="1.000000" stroke="none" d="&#10;M653.500000,87.064156 &#10;&#9;C650.010498,79.821602 646.946350,72.590981 643.893616,65.355553 &#10;&#9;C643.407104,64.202393 642.971375,63.027771 642.241821,61.177387 &#10;&#9;C636.263672,69.534248 640.545227,78.571983 638.554504,86.884544 &#10;&#9;C635.483154,86.884544 632.388123,86.884544 628.990845,86.884544 &#10;&#9;C628.990845,65.065231 628.990845,43.342823 628.990845,21.343460 &#10;&#9;C632.170044,21.343460 635.261780,21.343460 638.830078,21.343460 &#10;&#9;C638.830078,30.135117 638.830078,39.019333 638.830078,47.903545 &#10;&#9;C639.145081,47.979591 639.460083,48.055634 639.775085,48.131680 &#10;&#9;C642.857361,41.638508 645.936462,35.143848 649.022644,28.652552 &#10;&#9;C652.781494,20.746637 652.784058,20.747849 662.720276,21.283039 &#10;&#9;C658.843506,29.229181 655.319641,37.040714 651.251709,44.557831 &#10;&#9;C648.995361,48.727322 648.880920,52.222755 650.807861,56.627357 &#10;&#9;C655.117249,66.478081 658.759705,76.620598 662.841797,87.074478 &#10;&#9;C659.553284,87.074478 656.741211,87.074478 653.500000,87.064156 &#10;z" style="fill: rgb(255, 255, 255);"/>
  <path opacity="1.000000" stroke="none" d="&#10;M612.093872,52.918781 &#10;&#9;C612.093872,54.866173 612.093872,56.349087 612.093872,58.199951 &#10;&#9;C607.372498,58.199951 602.932251,58.199951 598.222107,58.199951 &#10;&#9;C598.222107,64.810585 598.222107,71.055298 598.222107,77.616852 &#10;&#9;C603.976990,77.616852 609.587402,77.616852 615.525513,77.616852 &#10;&#9;C615.525513,80.779510 615.525513,83.642220 615.525513,86.805351 &#10;&#9;C606.408142,86.805351 597.321960,86.805351 587.844604,86.805351 &#10;&#9;C587.844604,65.067352 587.844604,43.248631 587.844604,21.239155 &#10;&#9;C597.113770,21.239155 606.205444,21.239155 615.577515,21.239155 &#10;&#9;C615.577515,24.244005 615.577515,27.129719 615.577515,30.365368 &#10;&#9;C609.810486,30.365368 604.192932,30.365368 598.263184,30.365368 &#10;&#9;C598.263184,36.598267 598.263184,42.492859 598.263184,48.906219 &#10;&#9;C601.718079,48.906219 605.175964,49.093380 608.603027,48.848583 &#10;&#9;C611.483398,48.642834 612.555237,49.676037 612.093872,52.918781 &#10;z" style="fill: rgb(255, 255, 255);"/>
  <path opacity="1.000000" stroke="none" d="&#10;M526.714905,58.331711 &#10;&#9;C523.923401,58.331665 521.605957,58.331665 518.912476,58.331665 &#10;&#9;C518.912476,64.827858 518.912476,71.032639 518.912476,77.508896 &#10;&#9;C524.609619,77.508896 530.067566,77.508896 535.928345,77.508896 &#10;&#9;C535.928345,80.644173 535.928345,83.526161 535.928345,86.756287 &#10;&#9;C526.882751,86.756287 517.691223,86.756287 508.275879,86.756287 &#10;&#9;C508.275879,65.053177 508.275879,43.448021 508.275879,21.448793 &#10;&#9;C517.404480,21.448793 526.622925,21.448793 536.087952,21.448793 &#10;&#9;C536.087952,24.252007 536.087952,27.168200 536.087952,30.544392 &#10;&#9;C530.276611,30.544392 524.690308,30.544392 518.829102,30.544392 &#10;&#9;C518.829102,36.755154 518.829102,42.511738 518.829102,48.683174 &#10;&#9;C523.270935,48.683174 527.702637,48.683174 532.492676,48.683174 &#10;&#9;C532.492676,51.979935 532.492676,54.877396 532.492676,58.331753 &#10;&#9;C530.775696,58.331753 528.982300,58.331753 526.714905,58.331711 &#10;z" style="fill: rgb(255, 255, 255);"/>
  <path opacity="1.000000" stroke="none" d="&#10;M365.942139,77.659210 &#10;&#9;C369.746674,77.659248 373.057251,77.659248 376.611206,77.659248 &#10;&#9;C376.611206,80.770676 376.611206,83.532913 376.611206,86.699234 &#10;&#9;C367.814606,86.699234 358.910797,86.699234 349.636536,86.699234 &#10;&#9;C349.636536,65.173157 349.636536,43.465122 349.636536,21.402021 &#10;&#9;C352.835114,21.402021 356.058624,21.402021 359.748047,21.402021 &#10;&#9;C359.748047,39.901749 359.748047,58.477280 359.748047,77.659164 &#10;&#9;C361.940979,77.659164 363.694580,77.659164 365.942139,77.659210 &#10;z" style="fill: rgb(255, 255, 255);"/>
  <path opacity="1.000000" stroke="none" d="&#10;M549.048889,31.038670 &#10;&#9;C549.048889,27.575665 549.048889,24.605539 549.048889,21.344334 &#10;&#9;C552.613831,21.344334 555.842285,21.344334 559.598755,21.344334 &#10;&#9;C559.598755,40.014416 559.598755,58.595791 559.598755,77.672043 &#10;&#9;C565.522766,77.672043 570.941528,77.672043 576.538696,77.672043 &#10;&#9;C576.538696,80.943283 576.538696,83.710487 576.538696,86.786613 &#10;&#9;C567.464417,86.786613 558.552002,86.786613 549.048889,86.786613 &#10;&#9;C549.048889,68.397758 549.048889,49.964653 549.048889,31.038670 &#10;z" style="fill: rgb(255, 255, 255);"/>
  <path opacity="1.000000" stroke="none" d="&#10;M678.084290,21.067060 &#10;&#9;C686.534729,21.067060 694.494202,21.067060 702.727051,21.067060 &#10;&#9;C702.727051,24.263538 702.727051,27.161516 702.727051,30.385674 &#10;&#9;C699.349243,30.385674 696.057556,30.385674 692.369507,30.385674 &#10;&#9;C692.369507,49.245628 692.369507,67.791718 692.369507,86.706924 &#10;&#9;C688.781738,86.706924 685.579895,86.706924 681.891174,86.706924 &#10;&#9;C681.891174,68.223724 681.891174,49.675529 681.891174,30.686642 &#10;&#9;C678.177490,30.686642 674.925354,30.686642 671.336304,30.686642 &#10;&#9;C671.336304,27.378208 671.336304,24.496525 671.336304,21.067060 &#10;&#9;C673.377991,21.067060 675.485718,21.067060 678.084290,21.067060 &#10;z" style="fill: rgb(255, 255, 255);"/>
  <path opacity="1.000000" stroke="none" d="&#10;M848.443115,45.999802 &#10;&#9;C848.443115,37.547417 848.443115,29.595032 848.443115,21.345600 &#10;&#9;C852.071655,21.345600 855.281616,21.345600 858.728943,21.345600 &#10;&#9;C858.728943,43.090210 858.728943,64.783508 858.728943,86.789421 &#10;&#9;C855.425659,86.789421 852.188171,86.789421 848.443054,86.789421 &#10;&#9;C848.443054,73.355103 848.443054,59.927452 848.443115,45.999802 &#10;z" style="fill: rgb(255, 255, 255);"/>
  <path opacity="1.000000" stroke="none" d="&#10;M472.507690,58.773392 &#10;&#9;C466.479523,58.858868 460.905060,58.858868 455.114929,58.858868 &#10;&#9;C455.114929,55.536709 455.114929,52.648563 455.114929,49.503510 &#10;&#9;C461.345459,49.503510 467.362976,49.503510 474.219635,49.503510 &#10;&#9;C473.770172,52.784389 473.365784,55.736149 472.507690,58.773392 &#10;z" style="fill: rgb(255, 255, 255);"/>
  <path opacity="1.000000" stroke="none" d="&#10;M102.499702,80.517181 &#10;&#9;C111.197357,89.213249 111.197357,89.213249 123.043037,86.850357 &#10;&#9;C130.320709,74.946678 121.714958,68.397285 113.902740,61.498302 &#10;&#9;C130.343002,57.532669 143.609848,72.209595 140.217880,86.623428 &#10;&#9;C139.859482,88.146324 140.731903,90.579399 141.886429,91.745644 &#10;&#9;C162.511215,112.579491 183.234680,133.316345 204.078430,153.930984 &#10;&#9;C205.335663,155.174393 207.895584,155.978729 209.649216,155.705063 &#10;&#9;C225.490234,153.232803 237.413498,165.173248 234.384796,181.714386 &#10;&#9;C231.548203,178.907242 228.776459,176.610870 226.565659,173.863190 &#10;&#9;C223.812698,170.441727 220.774567,169.354538 216.566071,170.734497 &#10;&#9;C214.386200,171.449280 211.983597,171.484772 210.097870,171.765228 &#10;&#9;C203.151138,183.527832 211.107101,190.160919 219.061707,196.821640 &#10;&#9;C204.658646,201.242447 190.668640,188.831268 192.802139,174.149521 &#10;&#9;C193.374344,170.212006 192.440735,167.807755 189.723816,165.119781 &#10;&#9;C169.594910,145.205399 149.647552,125.107544 129.528229,105.183388 &#10;&#9;C128.245865,103.913452 125.828751,102.700272 124.232574,103.003448 &#10;&#9;C106.761406,106.322021 95.084183,90.898071 98.563660,77.033035 &#10;&#9;C99.982620,78.277885 101.116653,79.272766 102.499702,80.517181 &#10;z" style="fill: rgb(255, 255, 255);"/>
  <path opacity="1.000000" stroke="none" d="&#10;M92.918800,163.920563 &#10;&#9;C98.890732,158.279343 103.571526,151.618942 112.515259,150.545151 &#10;&#9;C114.336067,150.326538 116.763985,146.273224 117.046280,143.776672 &#10;&#9;C117.940895,135.865097 124.682961,132.956161 129.293839,128.273499 &#10;&#9;C129.779419,127.780365 132.447601,128.702698 133.489395,129.646103 &#10;&#9;C135.556335,131.517853 137.194946,133.862595 139.134521,136.158554 &#10;&#9;C141.374786,134.182297 142.846756,132.883804 144.848816,131.117676 &#10;&#9;C146.614685,133.419800 148.411377,135.762100 150.519211,138.510040 &#10;&#9;C149.799316,139.332291 148.426041,140.900833 147.005310,142.523590 &#10;&#9;C147.250870,142.917648 147.488190,143.339050 147.763550,143.733902 &#10;&#9;C149.918564,146.824188 152.080856,149.909393 154.240906,152.996170 &#10;&#9;C149.341415,157.350235 146.646729,164.489639 138.761414,165.073608 &#10;&#9;C134.403763,165.396332 132.377609,168.249084 130.981461,172.125854 &#10;&#9;C129.838730,175.298950 128.508377,178.660217 126.357071,181.159988 &#10;&#9;C122.138313,186.062103 117.343987,190.478180 112.686218,194.990479 &#10;&#9;C108.277107,199.261856 103.536873,200.084213 98.832268,196.393631 &#10;&#9;C94.177330,192.742050 89.855064,188.472824 86.145699,183.863800 &#10;&#9;C82.431313,179.248581 83.135628,174.289886 87.071342,169.859787 &#10;&#9;C88.835793,167.873703 90.796516,166.061966 92.918800,163.920563 &#10;z" style="fill: rgb(255, 255, 255);"/>
  <path opacity="1.000000" stroke="none" d="&#10;M169.885666,108.912811 &#10;&#9;C170.189438,107.227615 170.379639,105.439468 171.366928,104.433960 &#10;&#9;C178.471542,97.198235 185.737823,90.121277 192.925201,83.021240 &#10;&#9;C188.402420,77.492317 188.413727,77.508286 194.118073,73.469055 &#10;&#9;C198.995789,70.015152 203.947250,66.652954 208.670670,62.997665 &#10;&#9;C212.220993,60.250183 214.476151,62.120800 216.649979,64.695992 &#10;&#9;C218.801315,67.244537 223.044571,68.980949 219.296005,73.633537 &#10;&#9;C215.452454,78.403999 212.225906,83.668381 208.667007,88.672264 &#10;&#9;C204.961441,93.882347 204.903397,93.863174 200.015045,90.045517 &#10;&#9;C192.006241,98.149734 183.991821,106.259613 174.766418,115.594917 &#10;&#9;C172.860382,112.948181 171.500732,111.060181 169.885666,108.912811 &#10;z" style="fill: rgb(255, 255, 255);"/>
</svg>