<?xml version="1.0" encoding="utf-8"?>
<svg viewBox="4.061 0 317.621 292.803" xmlns="http://www.w3.org/2000/svg">
  <path opacity="1.000000" stroke="none" d="&#10;M124.999947,276.180389 &#10;&#9;C113.335869,276.179047 102.171196,276.248474 91.007942,276.152283 &#10;&#9;C83.136497,276.084473 78.865288,272.232422 78.818359,265.471863 &#10;&#9;C78.771194,258.676941 83.543610,254.379349 91.282349,254.311386 &#10;&#9;C96.060860,254.269409 100.840042,254.303604 105.865341,254.303604 &#10;&#9;C105.865341,248.203583 105.865341,242.627640 105.865341,236.410995 &#10;&#9;C104.076233,236.410995 102.460732,236.410980 100.845230,236.410995 &#10;&#9;C80.183372,236.411179 59.521473,236.436905 38.859673,236.403061 &#10;&#9;C23.747868,236.378296 17.131382,229.839142 17.125879,214.881729 &#10;&#9;C17.105042,158.228241 17.029768,101.574387 17.274582,44.921959 &#10;&#9;C17.295763,40.020473 18.489899,34.484829 21.033010,30.432167 &#10;&#9;C23.134171,27.083797 27.850475,25.089224 31.770382,23.279861 &#10;&#9;C34.030067,22.236832 37.009056,22.590662 39.664375,22.589703 &#10;&#9;C119.479126,22.560843 199.293900,22.589001 279.108612,22.533941 &#10;&#9;C287.906525,22.527872 296.017639,23.828344 299.860474,32.991219 &#10;&#9;C301.360901,36.568932 302.223206,40.695400 302.233154,44.574860 &#10;&#9;C302.379639,101.561218 302.384460,158.548141 302.294922,215.534744 &#10;&#9;C302.273468,229.199417 294.932983,236.323883 281.137665,236.386368 &#10;&#9;C260.309601,236.480713 239.480820,236.410843 218.652328,236.410782 &#10;&#9;C216.869293,236.410782 215.086258,236.410797 213.244659,236.410797 &#10;&#9;C213.244659,242.650360 213.244659,248.239670 213.244659,254.311371 &#10;&#9;C218.279678,254.311371 223.067078,254.182327 227.844849,254.341797 &#10;&#9;C234.905792,254.577484 238.774673,257.455414 240.095596,263.140381 &#10;&#9;C241.558167,269.434967 237.398804,275.382812 230.970184,276.032562 &#10;&#9;C228.822678,276.249634 226.642181,276.174683 224.476746,276.175171 &#10;&#9;C191.484482,276.182587 158.492218,276.180359 124.999947,276.180389 &#10;M33.293190,58.501930 &#10;&#9;C33.292725,110.329292 33.348206,162.156815 33.196903,213.983734 &#10;&#9;C33.183224,218.669388 34.313114,220.363586 39.270973,220.355423 &#10;&#9;C119.428154,220.223404 199.585678,220.226700 279.742859,220.352768 &#10;&#9;C284.593262,220.360397 285.922577,218.859039 285.909210,214.057571 &#10;&#9;C285.752655,157.731171 285.759521,101.404076 285.900146,45.077602 &#10;&#9;C285.911621,40.472713 284.941986,38.862965 279.928192,38.873478 &#10;&#9;C199.937790,39.041161 119.946930,38.991341 39.956177,38.991108 &#10;&#9;C39.122940,38.991108 38.282009,39.063946 37.457848,38.977341 &#10;&#9;C34.438488,38.660049 33.220562,40.053005 33.269554,43.005337 &#10;&#9;C33.349728,47.836796 33.292488,52.670528 33.293190,58.501930 &#10;z" style="fill: rgb(31, 41, 55);" transform="matrix(1.0000000000000002, 0, 0, 1.0000000000000002, 2.842170943040401e-14, 2.842170943040401e-14)"/>
  <path opacity="1.000000" stroke="none" d="&#10;M102.499702,80.517181 &#10;&#9;C111.197357,89.213249 111.197357,89.213249 123.043037,86.850357 &#10;&#9;C130.320709,74.946678 121.714958,68.397285 113.902740,61.498302 &#10;&#9;C130.343002,57.532669 143.609848,72.209595 140.217880,86.623428 &#10;&#9;C139.859482,88.146324 140.731903,90.579399 141.886429,91.745644 &#10;&#9;C162.511215,112.579491 183.234680,133.316345 204.078430,153.930984 &#10;&#9;C205.335663,155.174393 207.895584,155.978729 209.649216,155.705063 &#10;&#9;C225.490234,153.232803 237.413498,165.173248 234.384796,181.714386 &#10;&#9;C231.548203,178.907242 228.776459,176.610870 226.565659,173.863190 &#10;&#9;C223.812698,170.441727 220.774567,169.354538 216.566071,170.734497 &#10;&#9;C214.386200,171.449280 211.983597,171.484772 210.097870,171.765228 &#10;&#9;C203.151138,183.527832 211.107101,190.160919 219.061707,196.821640 &#10;&#9;C204.658646,201.242447 190.668640,188.831268 192.802139,174.149521 &#10;&#9;C193.374344,170.212006 192.440735,167.807755 189.723816,165.119781 &#10;&#9;C169.594910,145.205399 149.647552,125.107544 129.528229,105.183388 &#10;&#9;C128.245865,103.913452 125.828751,102.700272 124.232574,103.003448 &#10;&#9;C106.761406,106.322021 95.084183,90.898071 98.563660,77.033035 &#10;&#9;C99.982620,78.277885 101.116653,79.272766 102.499702,80.517181 &#10;z" style="fill: rgb(31, 41, 55);" transform="matrix(1.0000000000000002, 0, 0, 1.0000000000000002, 2.842170943040401e-14, 2.842170943040401e-14)"/>
  <path opacity="1.000000" stroke="none" d="&#10;M92.918800,163.920563 &#10;&#9;C98.890732,158.279343 103.571526,151.618942 112.515259,150.545151 &#10;&#9;C114.336067,150.326538 116.763985,146.273224 117.046280,143.776672 &#10;&#9;C117.940895,135.865097 124.682961,132.956161 129.293839,128.273499 &#10;&#9;C129.779419,127.780365 132.447601,128.702698 133.489395,129.646103 &#10;&#9;C135.556335,131.517853 137.194946,133.862595 139.134521,136.158554 &#10;&#9;C141.374786,134.182297 142.846756,132.883804 144.848816,131.117676 &#10;&#9;C146.614685,133.419800 148.411377,135.762100 150.519211,138.510040 &#10;&#9;C149.799316,139.332291 148.426041,140.900833 147.005310,142.523590 &#10;&#9;C147.250870,142.917648 147.488190,143.339050 147.763550,143.733902 &#10;&#9;C149.918564,146.824188 152.080856,149.909393 154.240906,152.996170 &#10;&#9;C149.341415,157.350235 146.646729,164.489639 138.761414,165.073608 &#10;&#9;C134.403763,165.396332 132.377609,168.249084 130.981461,172.125854 &#10;&#9;C129.838730,175.298950 128.508377,178.660217 126.357071,181.159988 &#10;&#9;C122.138313,186.062103 117.343987,190.478180 112.686218,194.990479 &#10;&#9;C108.277107,199.261856 103.536873,200.084213 98.832268,196.393631 &#10;&#9;C94.177330,192.742050 89.855064,188.472824 86.145699,183.863800 &#10;&#9;C82.431313,179.248581 83.135628,174.289886 87.071342,169.859787 &#10;&#9;C88.835793,167.873703 90.796516,166.061966 92.918800,163.920563 &#10;z" style="fill: rgb(31, 41, 55);" transform="matrix(1.0000000000000002, 0, 0, 1.0000000000000002, 2.842170943040401e-14, 2.842170943040401e-14)"/>
  <path opacity="1.000000" stroke="none" d="&#10;M169.885666,108.912811 &#10;&#9;C170.189438,107.227615 170.379639,105.439468 171.366928,104.433960 &#10;&#9;C178.471542,97.198235 185.737823,90.121277 192.925201,83.021240 &#10;&#9;C188.402420,77.492317 188.413727,77.508286 194.118073,73.469055 &#10;&#9;C198.995789,70.015152 203.947250,66.652954 208.670670,62.997665 &#10;&#9;C212.220993,60.250183 214.476151,62.120800 216.649979,64.695992 &#10;&#9;C218.801315,67.244537 223.044571,68.980949 219.296005,73.633537 &#10;&#9;C215.452454,78.403999 212.225906,83.668381 208.667007,88.672264 &#10;&#9;C204.961441,93.882347 204.903397,93.863174 200.015045,90.045517 &#10;&#9;C192.006241,98.149734 183.991821,106.259613 174.766418,115.594917 &#10;&#9;C172.860382,112.948181 171.500732,111.060181 169.885666,108.912811 &#10;z" style="fill: rgb(31, 41, 55);" transform="matrix(1.0000000000000002, 0, 0, 1.0000000000000002, 2.842170943040401e-14, 2.842170943040401e-14)"/>
</svg>